<?xml version="1.0" encoding="UTF-8" standalone="no"?>
<svg
   xmlns:dc="http://purl.org/dc/elements/1.1/"
   xmlns:cc="http://creativecommons.org/ns#"
   xmlns:rdf="http://www.w3.org/1999/02/22-rdf-syntax-ns#"
   xmlns:svg="http://www.w3.org/2000/svg"
   xmlns="http://www.w3.org/2000/svg"
   xmlns:sodipodi="http://sodipodi.sourceforge.net/DTD/sodipodi-0.dtd"
   xmlns:inkscape="http://www.inkscape.org/namespaces/inkscape"
   sodipodi:docname="Pass.color.svg"
   inkscape:version="1.0 (4035a4fb49, 2020-05-01)"
   id="svg8"
   version="1.1"
   viewBox="0 0 512 512"
   height="512"
   width="512">
  <defs
     id="defs2" />
  <sodipodi:namedview
     inkscape:guide-bbox="true"
     showguides="true"
     inkscape:window-maximized="0"
     inkscape:window-y="43"
     inkscape:window-x="197"
     inkscape:window-height="1198"
     inkscape:window-width="1808"
     units="px"
     showgrid="true"
     inkscape:document-rotation="0"
     inkscape:current-layer="g861"
     inkscape:document-units="px"
     inkscape:cy="337.10919"
     inkscape:cx="182.98993"
     inkscape:zoom="0.98994949"
     inkscape:pageshadow="2"
     inkscape:pageopacity="0.0"
     borderopacity="1.0"
     bordercolor="#666666"
     pagecolor="#ffffff"
     id="base">
    <inkscape:grid
       empopacity="0.13333333"
       empcolor="#3fe1ff"
       visible="true"
       enabled="true"
       snapvisiblegridlinesonly="false"
       dotted="false"
       empspacing="1"
       opacity="0.36470588"
       color="#3fceff"
       id="grid10"
       type="xygrid" />
    <sodipodi:guide
       inkscape:color="rgb(249,0,255)"
       inkscape:locked="false"
       inkscape:label="Center-V"
       id="guide9"
       orientation="-1,0"
       position="256,256" />
    <sodipodi:guide
       inkscape:color="rgb(249,0,255)"
       inkscape:locked="false"
       inkscape:label="Center-H"
       id="guide11"
       orientation="0,1"
       position="256,256" />
    <sodipodi:guide
       inkscape:color="rgb(255,0,0)"
       inkscape:locked="false"
       inkscape:label="Margin-Left"
       id="guide13"
       orientation="-1,0"
       position="12,256" />
    <sodipodi:guide
       inkscape:color="rgb(255,0,0)"
       inkscape:locked="false"
       inkscape:label="Margin-Right"
       id="guide15"
       orientation="-1,0"
       position="500,256" />
    <sodipodi:guide
       inkscape:color="rgb(255,0,0)"
       inkscape:locked="false"
       inkscape:label="Margin-Top"
       id="guide17"
       orientation="0,1"
       position="256,500" />
    <sodipodi:guide
       inkscape:color="rgb(255,0,0)"
       inkscape:locked="false"
       inkscape:label="Margin-Bottom"
       id="guide19"
       orientation="0,1"
       position="256,12" />
    <sodipodi:guide
       inkscape:color="rgb(255,200,252)"
       inkscape:locked="false"
       inkscape:label="Third-V-Left"
       id="guide21"
       orientation="-1,0"
       position="170.667,256" />
    <sodipodi:guide
       inkscape:color="rgb(255,200,252)"
       inkscape:locked="false"
       inkscape:label="Third-V-Right"
       id="guide23"
       orientation="-1,0"
       position="341.333,256" />
    <sodipodi:guide
       inkscape:color="rgb(255,200,252)"
       inkscape:locked="false"
       inkscape:label="Third-H-Top"
       id="guide25"
       orientation="0,1"
       position="256,341.334" />
    <sodipodi:guide
       inkscape:color="rgb(255,200,252)"
       inkscape:locked="false"
       inkscape:label="Third-V-Bottom"
       id="guide27"
       orientation="0,1"
       position="256,170.667" />
  </sodipodi:namedview>
  <metadata
     id="metadata5">
    <rdf:RDF>
      <cc:Work
         rdf:about="">
        <dc:format>image/svg+xml</dc:format>
        <dc:type
           rdf:resource="http://purl.org/dc/dcmitype/StillImage" />
        <dc:title></dc:title>
      </cc:Work>
    </rdf:RDF>
  </metadata>
  <g
     inkscape:groupmode="layer"
     id="layer1"
     inkscape:label="Canvas"
     sodipodi:insensitive="true"
     style="display:none">
    <rect
       style="fill:#ff00ff;stroke:#ff00ff;stroke-width:0;paint-order:stroke markers fill"
       id="rect840"
       width="512"
       height="512"
       x="5e-07"
       y="5e-07" />
  </g>
  <g
     inkscape:groupmode="layer"
     id="layer2"
     inkscape:label="Icon">
    <g
       transform="matrix(1.0472103,0,0,1.0472103,-12.085837,-12.085837)"
       id="g861">
      <path
         style="fill:#44ee77;fill-opacity:1"
         class="st0"
         d="m 489,255.9 c 0,-0.2 0,-0.5 0,-0.7 0,-1.6 0,-3.2 -0.1,-4.7 0,-0.9 -0.1,-1.8 -0.1,-2.8 0,-0.9 -0.1,-1.8 -0.1,-2.7 -0.1,-1.1 -0.1,-2.2 -0.2,-3.3 0,-0.7 -0.1,-1.4 -0.1,-2.1 -0.1,-1.2 -0.2,-2.4 -0.3,-3.6 0,-0.5 -0.1,-1.1 -0.1,-1.6 -0.1,-1.3 -0.3,-2.6 -0.4,-4 0,-0.3 -0.1,-0.7 -0.1,-1 C 474.3,113.2 375.7,22.9 256,22.9 136.3,22.9 37.7,113.2 24.5,229.5 c 0,0.3 -0.1,0.7 -0.1,1 -0.1,1.3 -0.3,2.6 -0.4,4 -0.1,0.5 -0.1,1.1 -0.1,1.6 -0.1,1.2 -0.2,2.4 -0.3,3.6 0,0.7 -0.1,1.4 -0.1,2.1 -0.1,1.1 -0.1,2.2 -0.2,3.3 0,0.9 -0.1,1.8 -0.1,2.7 0,0.9 -0.1,1.8 -0.1,2.8 0,1.6 -0.1,3.2 -0.1,4.7 0,0.2 0,0.5 0,0.7 0,0 0,0 0,0.1 0,0.1 0,0 0,0.1 0,0.2 0,0.5 0,0.7 0,1.6 0,3.2 0.1,4.7 0,0.9 0.1,1.8 0.1,2.8 0,0.9 0.1,1.8 0.1,2.7 0.1,1.1 0.1,2.2 0.2,3.3 0,0.7 0.1,1.4 0.1,2.1 0.1,1.2 0.2,2.4 0.3,3.6 0,0.5 0.1,1.1 0.1,1.6 0.1,1.3 0.3,2.6 0.4,4 0,0.3 0.1,0.7 0.1,1 13.2,116.1 111.8,206.4 231.5,206.4 119.7,0 218.3,-90.3 231.5,-206.5 0,-0.3 0.1,-0.7 0.1,-1 0.1,-1.3 0.3,-2.6 0.4,-4 0.1,-0.5 0.1,-1.1 0.1,-1.6 0.1,-1.2 0.2,-2.4 0.3,-3.6 0,-0.7 0.1,-1.4 0.1,-2.1 0.1,-1.1 0.1,-2.2 0.2,-3.3 0,-0.9 0.1,-1.8 0.1,-2.7 0,-0.9 0.1,-1.8 0.1,-2.8 0,-1.6 0.1,-3.2 0.1,-4.7 0,-0.2 0,-0.5 0,-0.7 0,-0.1 0,-0.1 0,-0.2 0,0.1 0,0.1 0,0 z"
         id="XMLID_3_" />
      <g
         id="XMLID_1_">
        <line
           class="st1"
           id="XMLID_2_"
           x1="213.60001"
           x2="369.70001"
           y1="344.20001"
           y2="188.2" />
        <line
           class="st1"
           id="XMLID_4_"
           x1="233.8"
           x2="154.7"
           y1="345.20001"
           y2="266.10001" />
      </g>
    </g>
  </g>
  <style
     type="text/css"
     id="style843">
	.st0{fill:#2BB673;}
	.st1{fill:none;stroke:#FFFFFF;stroke-width:30;stroke-miterlimit:10;}
</style>
</svg>
